<svg xmlns="http://www.w3.org/2000/svg" xmlns:xlink="http://www.w3.org/1999/xlink" version="1.1" x="0px" y="0px" viewBox="0 0 500 625" style="enable-background:new 0 0 500 500;" xml:space="preserve"><path d="M131.1,280.2v46.6l40.3-23.3V257L131.1,280.2z M128.9,339.6c-1.8,1.2-3.8,1.1-5.6,0l-24.9-14.3l-25.1-14.5  c-1.6-0.9-2.5-2.6-2.5-4.3h0v-58.1c0-2,1.2-3.8,2.9-4.6l24.7-14.3l0,0l25.2-14.5c1.6-0.9,3.5-0.9,5,0l50.2,29  c1.6,0.9,2.5,2.5,2.5,4.3h0v58.1c0,2-1.1,3.7-2.8,4.5L128.9,339.6z M121.1,326.8v-46.6L80.8,257v46.6L121.1,326.8z M101,257.1  l40.3-23.3l-15.2-8.8l-22.6,13.1l0,0l-17.7,10.2L101,257.1z M151.3,239.5l-40.3,23.3l15.2,8.8l40.3-23.3L151.3,239.5z M301.7,282.4  h-38.4v93.2h38.1c1.2-27.1,34.2-40.1,53.5-20.8c12.2,12.2,12.2,32.1,0,44.4c-17,17-45.8,9.3-52.4-13.5h-44.2c-2.8,0-5-2.2-5-5v-98.2  h-34.6c-2.2,41.8-32.3,76.7-72.7,85.5v59.5h277V99.9h-62.1v9.3c0,5.8-4.7,10.5-10.5,10.5H218.6c-2.9,0-5.5-1.2-7.4-3.1v0  c-1.9-1.9-3.1-4.5-3.1-7.4v-9.3H146v86.9c40.3,8.8,70.4,43.7,72.7,85.5h34.6v-94.5c0-2.7,2.2-5,5-5h43.4c4-25.1,35-35.3,53.2-17.2  c12.2,12.3,12.2,32.1,0,44.4c-18.1,18.1-49.2,7.9-53.2-17.2h-38.4v89.5h38.4c4-25.1,35-35.3,53.2-17.2c12.2,12.2,12.2,32.1,0,44.4  C336.7,317.7,305.7,307.4,301.7,282.4L301.7,282.4z M347.8,162.7c-13.4-13.4-36.5-3.9-36.5,15.1c0,19,23.1,28.5,36.5,15.1  C356.1,184.6,356.1,171.1,347.8,162.7L347.8,162.7z M347.8,361.8c-13.4-13.4-36.5-3.9-36.5,15.1c0,19,23.1,28.5,36.5,15.1  C356.1,383.7,356.1,370.1,347.8,361.8L347.8,361.8z M347.8,262.2c-13.4-13.4-36.5-3.9-36.5,15.1c0,19,23.1,28.5,36.5,15.1  C356.1,284.1,356.1,270.6,347.8,262.2L347.8,262.2z M126.1,184.7c3.3,0,6.7,0.2,9.9,0.5V94.9c0-2.7,2.2-5,5-5h67.2V75.3h-73.3  c-12.5,0-22.3,10.6-22.3,23.1v87.2C117,185,121.5,184.7,126.1,184.7L126.1,184.7z M136,369.5c-7.8,0.9-15.8,0.7-23.5-0.5v77.8  c0,12.5,9.9,23.1,22.3,23.1h299.4c12.5,0,22.3-10.6,22.3-23.1V98.5c0-12.6-9.9-23.1-22.3-23.1h-73.3v14.6H428c2.8,0,5,2.2,5,5v337.5  c0,2.8-2.2,5-5,5h-287c-2.8,0-5-2.2-5-5V369.5z M102.5,367c-40.2-10.5-69.1-47.1-69.1-89.7c0-42.6,28.9-79.1,69.1-89.7V98.5  c0-18,14.4-33.1,32.3-33.1h73.3v-7.1c0-2.9,1.2-5.5,3.1-7.4l0,0c1.9-1.9,4.5-3.1,7.4-3.1h32.2c5.1-26.3,37.6-37.1,57.3-18.3  c5.1,4.8,8.7,11.2,10.1,18.3h32.2c5.8,0,10.5,4.7,10.5,10.4v7.1h73.3c17.9,0,32.3,15.1,32.3,33.1v348.4c0,18-14.4,33.1-32.3,33.1  H134.9c-18,0-32.3-15.1-32.3-33.1V367z M184.6,218.9c-32.3-32.3-84.7-32.3-117,0c-32.3,32.3-32.3,84.6,0,116.9  c15.5,15.5,36.4,24.2,58.5,24.2c45.3,0,82.7-36.6,82.7-82.7C208.8,254.5,199.6,233.8,184.6,218.9L184.6,218.9z M284.5,37.9  c13.7,0,20.6,16.6,10.9,26.3c-9.7,9.7-26.3,2.8-26.3-10.9C269.1,44.8,276,37.9,284.5,37.9L284.5,37.9z M288.4,49.4  c-3.4-3.4-9.3-1-9.3,3.8c0,4.8,5.8,7.3,9.3,3.9C290.5,55,290.5,51.6,288.4,49.4L288.4,49.4z M255.2,57.8h-36.6c-0.1,0-0.2,0-0.3,0.1  l0,0c-0.3,0.3-0.1,48.5-0.1,51.3c0,0.1,0,0.2,0.1,0.3v0l0.3,0.1h131.8l0.5-0.5L350.8,58l-0.4-0.2h-36.6v0c-2.6,0-4.8-2.1-5-4.7  c-1.1-20.6-26-30.6-41-16.4c-4.3,4.1-7.2,9.8-7.6,16C260.2,55.7,258,57.8,255.2,57.8L255.2,57.8z"/><text x="0" y="515" fill="#000000" font-size="5px" font-weight="bold" font-family="'Helvetica Neue', Helvetica, Arial-Unicode, Arial, Sans-serif">Created by monibag</text><text x="0" y="520" fill="#000000" font-size="5px" font-weight="bold" font-family="'Helvetica Neue', Helvetica, Arial-Unicode, Arial, Sans-serif">from the Noun Project</text></svg>