<svg xmlns="http://www.w3.org/2000/svg" xmlns:xlink="http://www.w3.org/1999/xlink" version="1.1" x="0px" y="0px" viewBox="0 0 500 625" style="enable-background:new 0 0 500 500;" xml:space="preserve"><path d="M269.1,425.7l-16.6,9.6v0l-17.7,10.3c-3.4,1.9-7.5-0.5-7.5-4.3h0v-15.5H113.2c-36.9,0-66.9-30-66.9-66.9v-46.9  c0-36.9,30-66.9,66.9-66.9h273.7c31.3,0,56.9-25.6,56.9-56.9v-46.9c0-31.4-25.6-56.9-56.9-56.9H269.1l-16.6,9.6l0,0l-17.7,10.3  c-3.4,1.9-7.5-0.5-7.5-4.3h0V84.3H82.1c-4,24.9-34.9,35.1-52.9,17.1c-12.2-12.2-12.2-32,0-44.2c18.1-18.1,48.9-7.9,52.9,17.1h145.2  V58.8c0-3.7,4.1-6.5,7.8-4.1l34,19.6h117.8c36.9,0,66.9,30.1,66.9,66.9v46.9c0,36.9-30,66.9-66.9,66.9H113.2  c-31.4,0-56.9,25.6-56.9,56.9v46.9c0,31.4,25.6,56.9,56.9,56.9h114.1v-15.5c0-3.7,4.1-6.5,7.8-4.1l34,19.6h148.8  c2.1-13.2,12.6-23.7,25.9-25.8v-33.8h-53.4c-4.6,0-7-5.8-3-9l58.1-49.4c3.3-2.8,8.2-0.4,8.2,3.8l0,0v88.4  c24.9,4,35.2,34.9,17.1,52.9c-18.1,18.1-48.9,7.9-52.9-17.1H269.1z M247.5,426.7l10.3-5.9l-20.6-11.9v23.7L247.5,426.7L247.5,426.7  L247.5,426.7z M247.5,85.2l10.3-5.9l-20.6-11.9v23.7L247.5,85.2L247.5,85.2L247.5,85.2z M66.2,64.3C52.9,50.9,30,60.4,30,79.3  c0,18.9,22.9,28.3,36.3,15C74.6,86,74.6,72.6,66.2,64.3L66.2,64.3z M463.8,405.7c-13.4-13.4-36.3-3.9-36.3,15  c0,18.9,22.9,28.3,36.3,15C472.1,427.4,472.1,414,463.8,405.7L463.8,405.7z M422.8,330.1l-18.8,16h39.8v-33.8L422.8,330.1z"/><text x="0" y="515" fill="#000000" font-size="5px" font-weight="bold" font-family="'Helvetica Neue', Helvetica, Arial-Unicode, Arial, Sans-serif">Created by monibag</text><text x="0" y="520" fill="#000000" font-size="5px" font-weight="bold" font-family="'Helvetica Neue', Helvetica, Arial-Unicode, Arial, Sans-serif">from the Noun Project</text></svg>