<svg xmlns="http://www.w3.org/2000/svg" xmlns:xlink="http://www.w3.org/1999/xlink" version="1.1" x="0px" y="0px" viewBox="0 0 500 625" style="enable-background:new 0 0 500 500;" xml:space="preserve"><path d="M255.6,36.5l69.1,39.9c0.1,0,0.2,0.1,0.3,0.1l68.7,39.7c1.6,0.9,2.6,2.5,2.6,4.4h0v159.6c0,2-1.2,3.8-2.9,4.6l-68.7,39.6v0  l-68.8,39.7c-1.8,1.2-3.8,1.2-5.6,0l-68.8-39.7l-69.1-39.9c-1.6-0.9-2.5-2.6-2.5-4.3h0V120.6c0-2,1.2-3.7,2.9-4.5l68.7-39.7l0,0  l69.1-39.9C252.1,35.5,254.1,35.6,255.6,36.5L255.6,36.5z M137,127.6c2.4,1.4,3.2,4.4,1.8,6.8c-1.4,2.4-4.4,3.2-6.8,1.8l-12.2-7.1  v148.1l128.2,74v-14.1c0-6.6,10-6.6,10,0v14.1l61.6-35.6v0l66.6-38.5V129.2l-12.2,7.1c-5.7,3.3-10.6-5.4-5-8.6l12.2-7.1l-62.4-36  l-19.3,11.1c-5.7,3.3-10.7-5.4-5-8.6l14.3-8.2L253,46.6L186.4,85h0l-61.6,35.6L137,127.6z M177.2,150.8c5.7,3.3,0.7,11.9-5,8.6  l-19.7-11.4c-5.7-3.3-0.7-11.9,5-8.6L177.2,150.8z M217.3,174c5.7,3.3,0.7,11.9-5,8.6l-19.7-11.4c-5.7-3.3-0.7-11.9,5-8.6L217.3,174  z M251.5,193.7c0.6,0.4,1.1,0.8,1.5,1.4c0.4-0.6,0.9-1,1.6-1.4l13.7-7.9c5.7-3.3,10.6,5.4,5,8.6l-13.7,7.9c-0.6,0.4-1.3,0.6-1.9,0.7  c0.3,0.6,0.4,1.3,0.4,2v15.9c0,6.6-10,6.6-10,0V205c0-0.7,0.1-1.4,0.4-2c-0.7-0.1-1.3-0.3-1.9-0.7l-13.7-7.9  c-5.7-3.3-0.7-11.9,5-8.6L251.5,193.7z M333.8,159.5c-5.7,3.3-10.7-5.4-5-8.6l19.7-11.4c5.7-3.3,10.7,5.3,5,8.6L333.8,159.5z   M293.7,182.6c-5.7,3.3-10.7-5.4-5-8.6l19.7-11.4c5.7-3.3,10.7,5.4,5,8.6L293.7,182.6z M248,290.8c0-6.6,10-6.6,10,0v22.8  c0,6.6-10,6.6-10,0V290.8z M248,244.5c0-6.6,10-6.6,10,0v22.8c0,6.6-10,6.6-10,0V244.5z M259.5,118.9c-5.7,3.3-10.7-5.4-5-8.6  l19.7-11.4c5.7-3.3,10.7,5.4,5,8.6L259.5,118.9z M219.4,142c-5.7,3.3-10.7-5.3-5-8.6l19.7-11.4c5.7-3.3,10.7,5.4,5,8.6L219.4,142z   M454.9,58.3c13.8,0,25.1,11.3,25.1,25.1v238l0,0c0,1.2-0.4,2.3-1.2,3.3c-10.2,11.9-15.8,31-17.3,47.6l-0.3,3.9c0,2.7-2.2,5-5,5  h-2.6l0,0c-2.6,0-4.8-2.1-5-4.7c-0.6-11.5-3-22.9-6.9-33c-2.9-7.4-6.5-13.7-10.5-18.4c-0.9-0.9-1.4-2.1-1.4-3.5v-238  C429.8,69.6,441.1,58.3,454.9,58.3L454.9,58.3z M470,109h-30.2v195.6H470V109z M454.9,68.3c-8.3,0-15.1,6.8-15.1,15.1V99H470V83.4  C470,75.1,463.2,68.3,454.9,68.3L454.9,68.3z M454.9,351.7c5.4-21,15-31.9,15.1-32.1v-5h-30.2v5  C439.9,319.8,449.5,330.8,454.9,351.7L454.9,351.7z M81.8,402.4H475c2.7,0,5,2.2,5,5v51.8c0,2.8-2.2,5-5,5H25c-2.8,0-5-2.3-5-5.1  V290.7c0-2.8,2.2-5,5-5h51.8c2.7,0,5,2.2,5,5V402.4z M37.1,454.2H470v-41.8H78.9L37.1,454.2z M71.8,295.7H30v151.4l41.8-41.8V295.7z  "/><text x="0" y="515" fill="#000000" font-size="5px" font-weight="bold" font-family="'Helvetica Neue', Helvetica, Arial-Unicode, Arial, Sans-serif">Created by monibag</text><text x="0" y="520" fill="#000000" font-size="5px" font-weight="bold" font-family="'Helvetica Neue', Helvetica, Arial-Unicode, Arial, Sans-serif">from the Noun Project</text></svg>