<svg xmlns="http://www.w3.org/2000/svg" xmlns:xlink="http://www.w3.org/1999/xlink" version="1.1" x="0px" y="0px" viewBox="0 0 500 625" style="enable-background:new 0 0 500 500;" xml:space="preserve"><path d="M244.3,180.2c-27.5-27.5-72.2-27.5-99.7,0s-27.5,72.2,0,99.7s72.2,27.5,99.7,0S271.8,207.8,244.3,180.2L244.3,180.2z   M194.5,149.6c44.4,0,80.5,36,80.5,80.5c0,44.5-36.1,80.5-80.5,80.5s-80.5-36-80.5-80.5C114,185.6,150,149.6,194.5,149.6  L194.5,149.6z M261,163.5c-36.8-36.8-96.4-36.8-133.2,0c-16.9,16.9-26,38.5-27.4,60.5c-1.4,22.3,5,45.1,19.4,63.6  c1.5,2,1.3,4.8-0.4,6.6l0,0l-21.9,21.9c-0.8,0.8,2.6,5.4,4,6.8c1.4,1.4,6,4.8,6.8,4l21.9-21.9c1.9-1.9,4.9-1.9,6.9-0.2  c9,6.9,19,12,29.4,15.2c0.2,0.1,0.4,0.1,0.6,0.2c10.8,3.3,22.1,4.5,33.4,3.8c49.5-3.2,88.1-44.3,88.1-94  C288.6,206,279.4,181.9,261,163.5L261,163.5z M194.5,125.9c57.5,0,104.2,46.7,104.2,104.2c0,67.5-63.1,116.8-128.2,101.4v89.7h267.2  v-316h-59.7v8.8c0,5.6-4.6,10.3-10.3,10.3H240.4c-5.6,0-10.3-4.6-10.3-10.3v-8.8h-59.7v23.5C178.3,126.8,186.4,125.9,194.5,125.9  L194.5,125.9z M160.4,328.6c-7.8-2.7-15.3-6.3-22.4-10.9v122.5c0,12,9.5,22.2,21.4,22.2h289.2c12,0,21.4-10.1,21.4-22.2V103.6  c0-12-9.5-22.1-21.4-22.1h-70.7v13.7h64.7c2.7,0,5,2.2,5,5v326c0,2.7-2.2,5-5,5H165.4c-2.7,0-5-2.2-5-5V328.6z M128,321.4l-6.7,6.7  c0.3,5.4-1.6,10.7-5.4,14.6L59.6,399c-7.3,7.3-19.3,7.3-26.6,0l-7.4-7.4c-7.3-7.3-7.3-19.3,0-26.7l56.3-56.3  c3.9-3.9,9.2-5.8,14.6-5.4l13-13c-14.1-19.9-20.4-43.5-18.9-66.8c1.8-27.9,14.7-54.7,37.5-73.6v-46.2c0-17.5,14-32.1,31.4-32.1h70.7  v-6.7c0-5.7,4.6-10.3,10.3-10.3h31c5-25.5,36.5-35.8,55.6-17.7c4.9,4.6,8.4,10.8,9.8,17.7h31c2.8,0,5.4,1.2,7.3,3l0,0  c1.9,1.9,3,4.4,3,7.3v6.7h70.7c17.5,0,31.4,14.7,31.4,32.1v336.6c0,17.5-13.9,32.1-31.4,32.1H159.4c-17.4,0-31.4-14.7-31.4-32.1  V321.4z M107.5,336.9c-8.8-0.6-19.3-11.1-19.9-19.9l-55,55c-3.4,3.4-3.4,9.1,0,12.5L40,392c3.4,3.5,9.1,3.5,12.5,0L107.5,336.9z   M138,142.5c7.1-4.6,14.6-8.2,22.4-10.9v-31.5c0-2.7,2.2-5,5-5h64.7V81.5h-70.7c-11.9,0-21.4,10.1-21.4,22.1V142.5z M325.7,298.4  c-6.6,0-6.6-10,0-10h73.9c6.6,0,6.6,10,0,10H325.7z M325.7,231.8c-6.6,0-6.6-10,0-10h73.9c6.6,0,6.6,10,0,10H325.7z M325.7,265.1  c-6.6,0-6.6-10,0-10h73.9c6.6,0,6.6,10,0,10H325.7z M325.7,165.1c-6.6,0-6.6-10,0-10h73.9c6.6,0,6.6,10,0,10H325.7z M325.7,198.5  c-6.6,0-6.6-10,0-10h73.9c6.6,0,6.6,10,0,10H325.7z M228.6,359.7h24c3.8-15.2,22.9-20.6,34.1-9.4c2.6,2.5,4.4,5.8,5.4,9.4h24  c3.9-15.2,22.9-20.6,34.1-9.4c2.6,2.5,4.4,5.8,5.3,9.4h24c3.8-15.2,22.9-20.6,34.1-9.4c12.8,12.8,3.7,34.7-14.4,34.7  c-9.4,0-17.5-6.4-19.7-15.3h-24c-3.8,15.2-22.9,20.6-34.1,9.4c-2.5-2.6-4.4-5.8-5.3-9.4h-24c-3.9,15.2-22.9,20.6-34.1,9.4  c-2.6-2.6-4.4-5.8-5.3-9.4h-24c-3.8,15.2-22.9,20.6-34.1,9.4c-12.8-12.8-3.7-34.7,14.4-34.7C218.3,344.4,226.3,350.8,228.6,359.7  L228.6,359.7z M216.2,357.4c-6.5-6.5-17.6-1.9-17.6,7.3c0,9.2,11.1,13.8,17.6,7.3C220.2,368,220.2,361.4,216.2,357.4L216.2,357.4z   M406.5,357.4c-6.5-6.5-17.6-1.9-17.6,7.3c0,9.2,11.1,13.8,17.6,7.3C410.5,368,410.5,361.4,406.5,357.4L406.5,357.4z M343,357.4  c-6.5-6.5-17.6-1.9-17.6,7.3c0,9.2,11.1,13.8,17.6,7.3C347.1,368,347.1,361.4,343,357.4L343,357.4z M279.6,357.4  c-6.5-6.5-17.6-1.9-17.6,7.3c0,9.2,11.1,13.8,17.6,7.3C283.6,368,283.6,361.4,279.6,357.4L279.6,357.4z M304,44.9  c13.4,0,20.1,16.3,10.7,25.7c-9.5,9.5-25.7,2.7-25.7-10.7C288.9,51.7,295.7,44.9,304,44.9L304,44.9z M307.6,56.4  c-3.2-3.2-8.6-0.9-8.6,3.6s5.5,6.8,8.6,3.6C309.6,61.6,309.6,58.4,307.6,56.4L307.6,56.4z M275.7,64.5l-35.5,0.1l-0.1,49.4l0.3,0.3  l127.4,0l0.1-0.2l-0.1-49.4v0l-35.5-0.1v0c-2.6,0-4.8-2.1-5-4.7c-1-19.8-25-29.3-39.4-15.7c-4.1,3.9-6.8,9.3-7.2,15.4  C280.6,62.4,278.5,64.5,275.7,64.5L275.7,64.5z"/><text x="0" y="515" fill="#000000" font-size="5px" font-weight="bold" font-family="'Helvetica Neue', Helvetica, Arial-Unicode, Arial, Sans-serif">Created by monibag</text><text x="0" y="520" fill="#000000" font-size="5px" font-weight="bold" font-family="'Helvetica Neue', Helvetica, Arial-Unicode, Arial, Sans-serif">from the Noun Project</text></svg>