<svg xmlns="http://www.w3.org/2000/svg" xmlns:xlink="http://www.w3.org/1999/xlink" version="1.1" x="0px" y="0px" viewBox="0 0 500 625" style="enable-background:new 0 0 500 500;" xml:space="preserve"><path d="M104.8,250c0-23.6,28.7-35.5,45.4-18.8c16.7,16.7,4.8,45.4-18.8,45.4C116.7,276.6,104.8,264.7,104.8,250L104.8,250z   M119.7,238.3c-10.4,10.4-3,28.3,11.7,28.3s22.1-17.9,11.7-28.3C136.6,231.8,126.2,231.8,119.7,238.3L119.7,238.3z M206.7,252.4  c-23.3,42.6-77.3,57.5-119.1,32.7c-13.2-7.9-24.2-19.2-31.6-32.8c-0.9-1.6-0.8-3.4,0-4.8c23.9-43,77.5-57.4,119.1-32.7  c13.2,7.9,24.2,19.2,31.6,32.8C207.6,249.2,207.5,251,206.7,252.4L206.7,252.4z M170.1,276.6c10.9-6.5,20.1-15.6,26.6-26.6  c-21.4-36-67.9-47.9-103.9-26.6c-10.9,6.5-20.1,15.6-26.6,26.6C87.5,286,134.1,297.9,170.1,276.6L170.1,276.6z M131.4,139.7  c30.4,0,58,12.3,78,32.3L471.4,20.7c5.7-3.3,10.7,5.4,5,8.6L216.2,179.5c6.4,7.7,11.8,16.4,16,25.7l27.5-7.4c6.3-1.7,8.9,8,2.6,9.7  l-26.4,7.1c3.3,9.6,5.2,19.9,5.7,30.5H261c6.6,0,6.6,10,0,10h-19.4c-0.5,10.6-2.4,20.8-5.7,30.5l26.4,7.1c6.3,1.7,3.8,11.3-2.6,9.6  l-27.5-7.4c-4.1,9.3-9.5,17.9-16,25.7l260.1,150.2c5.7,3.3,0.7,11.9-5,8.6L209.4,328c-43.1,43.1-112.9,43-155.9,0  c-43.1-43.1-43.1-112.9,0-156C73.4,152,100.9,139.7,131.4,139.7L131.4,139.7z M202.3,179.1c-39.2-39.2-102.7-39.2-141.8,0  c-39.2,39.1-39.2,102.7,0,141.8c39.2,39.1,102.7,39.1,141.8,0C241.5,281.8,241.5,218.2,202.3,179.1L202.3,179.1z M437.7,349.9  c-6.3-1.7-3.8-11.3,2.6-9.6l34.9,9.3c6.4,1.7,3.8,11.4-2.6,9.7L437.7,349.9z M366.8,330.9c-6.3-1.7-3.8-11.3,2.6-9.6l34.9,9.3  c6.3,1.7,3.8,11.4-2.6,9.7L366.8,330.9z M295.8,311.9c-6.3-1.7-3.8-11.3,2.6-9.6l34.9,9.4c6.3,1.7,3.8,11.3-2.6,9.6L295.8,311.9z   M440.3,159.8c-6.3,1.7-8.9-8-2.6-9.7l34.9-9.3c6.3-1.7,9,7.9,2.6,9.6L440.3,159.8z M369.3,178.8c-6.3,1.7-8.9-8-2.6-9.7l34.9-9.3  c6.3-1.7,8.9,7.9,2.6,9.6L369.3,178.8z M298.4,197.8c-6.3,1.7-8.9-7.9-2.6-9.6l34.9-9.4c6.3-1.7,8.9,8,2.6,9.7L298.4,197.8z   M439,255c-6.6,0-6.6-10,0-10h34.9c6.6,0,6.6,10,0,10H439z M368.1,255c-6.6,0-6.6-10,0-10h34.9c6.6,0,6.6,10,0,10H368.1z M297.1,255  c-6.6,0-6.6-10,0-10H332c6.6,0,6.6,10,0,10H297.1z"/><text x="0" y="515" fill="#000000" font-size="5px" font-weight="bold" font-family="'Helvetica Neue', Helvetica, Arial-Unicode, Arial, Sans-serif">Created by monibag</text><text x="0" y="520" fill="#000000" font-size="5px" font-weight="bold" font-family="'Helvetica Neue', Helvetica, Arial-Unicode, Arial, Sans-serif">from the Noun Project</text></svg>